<?xml version="1.0" encoding="UTF-8"?>
<svg xmlns="http://www.w3.org/2000/svg" version="1.1" viewBox="0 0 174.3 33.2">
  <!-- Generator: Adobe Illustrator 30.4.0, SVG Export Plug-In . SVG Version: 2.1.4 Build 226)  -->
  <g id="Layer_1" data-asc="0.984">
    <path d="M12.9,33.2c-2.4,0-4.6-.5-6.5-1.5-1.9-1-3.5-2.5-4.6-4.4-1.1-1.9-1.7-4.2-1.7-6.9v-.7c0-2.7.6-5,1.7-6.9,1.1-1.9,2.7-3.3,4.6-4.3,2-1,4.1-1.5,6.5-1.5,2.4,0,4.4.4,6.1,1.2,1.7.8,3.1,2,4.1,3.4,1.1,1.4,1.7,3.1,2.1,4.9l-6.1,1.3c-.1-1-.4-1.9-.9-2.7-.5-.8-1.1-1.4-2-1.9-.9-.5-1.9-.7-3.2-.7-1.3,0-2.4.3-3.4.8-1,.5-1.8,1.4-2.4,2.5-.6,1.1-.9,2.4-.9,4v.5c0,1.6.3,2.9.9,4,.6,1.1,1.4,1.9,2.4,2.5,1,.5,2.2.8,3.4.8,1.9,0,3.3-.5,4.3-1.5,1-1,1.6-2.3,1.9-3.9l6.1,1.5c-.4,1.8-1.2,3.4-2.2,4.8-1,1.4-2.4,2.6-4.1,3.4-1.7.8-3.7,1.3-6.1,1.2ZM40.3,33.2c-2.5,0-4.7-.5-6.6-1.5-2-1-3.5-2.5-4.7-4.4-1.1-1.9-1.7-4.2-1.7-6.8v-.8c0-2.7.6-4.9,1.7-6.9,1.1-1.9,2.7-3.3,4.7-4.3,2-1,4.2-1.5,6.6-1.5,2.5,0,4.7.5,6.7,1.5,2,1,3.5,2.4,4.6,4.3,1.1,1.9,1.7,4.2,1.7,6.9v.8c0,2.7-.6,4.9-1.7,6.8s-2.7,3.4-4.6,4.4c-2,1-4.2,1.5-6.7,1.5M40.3,27.6c1.9,0,3.5-.6,4.8-1.9,1.3-1.3,1.9-3,1.9-5.4v-.5c0-2.3-.6-4.1-1.9-5.4s-2.9-1.9-4.8-1.9c-1.9,0-3.5.6-4.8,1.9-1.3,1.2-1.9,3-1.9,5.4v.5c0,2.3.6,4.1,1.9,5.4,1.3,1.2,2.9,1.9,4.8,1.9ZM55.1,32.5V7.7h6.2v3.2h.9c.4-.9,1.2-1.7,2.2-2.5,1.1-.8,2.8-1.2,5-1.2s3.6.4,5.1,1.3c1.4.9,2.6,2.1,3.4,3.6.8,1.5,1.2,3.4,1.2,5.4v14.8h-6.3v-14.3c0-1.9-.5-3.3-1.4-4.2-.9-.9-2.2-1.4-3.9-1.4-1.9,0-3.4.6-4.5,1.9-1.1,1.3-1.6,3.1-1.6,5.4v12.6h-6.3ZM91.7,32.5c-1.6,0-3-.5-4-1.5-1-1-1.5-2.4-1.5-4.1v-14h-6.2v-5.2h6.2V0h6.3v7.7h6.8v5.2h-6.8v12.9c0,1,.5,1.5,1.4,1.5h4.8v5.2h-7ZM110.7,33.2c-1.8,0-3.3-.3-4.8-.9-1.4-.6-2.5-1.5-3.3-2.7-.8-1.2-1.2-2.6-1.2-4.3s.4-3.1,1.2-4.3c.8-1.2,1.9-2,3.4-2.6,1.4-.6,3.1-.9,5-.9h6.8v-1.4c0-1.2-.4-2.1-1.1-2.9-.7-.8-1.9-1.1-3.5-1.1-1.6,0-2.7.4-3.5,1.1-.8.7-1.3,1.6-1.5,2.8l-5.8-2c.4-1.3,1-2.4,1.9-3.5.9-1.1,2.1-1.9,3.5-2.5,1.5-.7,3.3-1,5.4-1,3.3,0,5.9.8,7.8,2.4,1.9,1.6,2.8,4,2.8,7.1v9.2c0,1,.5,1.5,1.4,1.5h2v5.2h-4.2c-1.2,0-2.3-.3-3.1-.9-.8-.6-1.2-1.4-1.2-2.4h0c0,0-1,0-1,0-.1.4-.4.9-.9,1.6-.5.6-1.2,1.2-2.2,1.7-1,.5-2.4.8-4.1.8M111.8,28.1c1.8,0,3.2-.5,4.3-1.5,1.1-1,1.7-2.3,1.7-3.9v-.5h-6.4c-1.2,0-2.1.2-2.8.8-.7.5-1,1.2-1,2.1,0,.9.3,1.6,1.1,2.2.7.6,1.7.8,3.1.8ZM141.1,33.2c-2.4,0-4.6-.5-6.5-1.5-2-1-3.5-2.5-4.6-4.4-1.1-1.9-1.7-4.2-1.7-6.9v-.7c0-2.7.6-5,1.7-6.9,1.1-1.9,2.7-3.3,4.6-4.3,1.9-1,4.1-1.5,6.5-1.5,2.4,0,4.4.4,6.1,1.2,1.7.8,3.1,2,4.1,3.4,1,1.4,1.7,3.1,2.1,4.9l-6.1,1.3c-.1-1-.4-1.9-.9-2.7-.5-.8-1.1-1.4-2-1.9-.9-.5-1.9-.7-3.2-.7-1.3,0-2.4.3-3.4.8-1,.5-1.8,1.4-2.4,2.5-.6,1.1-.9,2.4-.9,4v.5c0,1.6.3,2.9.9,4,.6,1.1,1.4,1.9,2.4,2.5,1,.5,2.2.8,3.4.8,1.9,0,3.3-.5,4.3-1.5,1-1,1.6-2.3,1.9-3.9l6.1,1.5c-.4,1.8-1.2,3.4-2.2,4.8-1.1,1.4-2.4,2.6-4.1,3.4-1.7.8-3.7,1.3-6.1,1.2ZM166.4,32.5c-1.6,0-3-.5-4-1.5-1-1-1.5-2.4-1.5-4.1v-14h-6.2v-5.2h6.2V0h6.3v7.7h6.8v5.2h-6.8v12.9c0,1,.5,1.5,1.4,1.5h4.8v5.2h-7Z"/>
  </g>
</svg>