<?xml version="1.0" encoding="UTF-8"?>
<svg xmlns="http://www.w3.org/2000/svg" version="1.1" viewBox="0 0 103.1 26.2">
  <!-- Generator: Adobe Illustrator 30.4.0, SVG Export Plug-In . SVG Version: 2.1.4 Build 226)  -->
  <g id="Layer_1" data-asc="0.984">
    <path d="M12.9,26.2c-2.4,0-4.6-.5-6.5-1.5-1.9-1-3.5-2.5-4.6-4.4-1.1-1.9-1.7-4.2-1.7-6.9v-.7c0-2.7.6-5,1.7-6.9,1.1-1.9,2.7-3.3,4.6-4.3C8.3.5,10.4,0,12.9,0c2.4,0,4.4.4,6.1,1.2,1.7.8,3.1,2,4.1,3.4,1.1,1.4,1.7,3.1,2.1,4.9l-6.1,1.3c-.1-1-.4-1.9-.9-2.7-.5-.8-1.1-1.4-2-1.9-.9-.5-1.9-.7-3.2-.7-1.3,0-2.4.3-3.4.8-1,.5-1.8,1.4-2.4,2.5-.6,1.1-.9,2.4-.9,4v.5c0,1.6.3,2.9.9,4,.6,1.1,1.4,1.9,2.4,2.5,1,.5,2.2.8,3.4.8,1.9,0,3.3-.5,4.3-1.5,1-1,1.6-2.3,1.9-3.9l6.1,1.5c-.4,1.8-1.2,3.4-2.2,4.8-1,1.4-2.4,2.6-4.1,3.4-1.7.8-3.7,1.3-6.1,1.2ZM27.5,25.5V.7h6.2v2.8h.9c.4-1,1-1.7,1.8-2.2.9-.5,1.8-.7,3-.7h3v5.6h-3.1c-1.6,0-2.9.4-4,1.3-1,.8-1.5,2.2-1.5,3.9v14.1h-6.3ZM55.7,26.2c-2.5,0-4.6-.5-6.5-1.6-1.9-1.1-3.3-2.5-4.4-4.5-1-1.9-1.6-4.2-1.6-6.8v-.6c0-2.6.5-4.9,1.5-6.8,1-1.9,2.5-3.4,4.3-4.4C51,.5,53.1,0,55.6,0c2.4,0,4.6.5,6.3,1.6,1.8,1.1,3.2,2.6,4.2,4.5,1,1.9,1.5,4.1,1.5,6.7v2.2h-18.1c0,1.7.7,3.1,1.9,4.1,1.2,1.1,2.7,1.6,4.4,1.6,1.8,0,3.1-.4,3.9-1.2.8-.8,1.5-1.6,1.9-2.5l5.2,2.7c-.5.9-1.1,1.8-2,2.8-.9,1-2.1,1.9-3.5,2.6-1.5.7-3.3,1.1-5.6,1.1M50.7,10.2h11.6c-.1-1.4-.7-2.6-1.7-3.5-1-.9-2.3-1.3-4-1.3-1.7,0-3,.4-4,1.3s-1.6,2-1.8,3.5ZM71.2,25.5l-3.5-24.8h6.2l2.2,20.6h.9l3.2-20.6h10.1l3.2,20.6h.9l2.2-20.6h6.2l-3.5,24.8h-10.4l-3.2-20.6h-.9l-3.2,20.6h-10.4Z"/>
    <path d="M0,40.9"/>
  </g>
</svg>