<svg xmlns="http://www.w3.org/2000/svg" viewBox="0 14.199999809265137 204.25 45" data-asc="0.984" width="204.25" height="45"><defs/><g fill="#000000"><g transform="translate(0, 0)"><path d="M11.70 49.20Q9.25 49.20 7.73 47.68Q6.20 46.15 6.20 43.60L6.20 29.60L0 29.60L0 24.40L6.20 24.40L6.20 16.70L12.50 16.70L12.50 24.40L19.30 24.40L19.30 29.60L12.50 29.60L12.50 42.50Q12.50 44 13.90 44L18.70 44L18.70 49.20L11.70 49.20ZM34.45 49.60Q31.55 49.60 29.38 48.28Q27.20 46.95 26 44.60Q24.80 42.25 24.80 39.20L24.80 24.40L31.10 24.40L31.10 38.70Q31.10 41.50 32.48 42.90Q33.85 44.30 36.40 44.30Q39.30 44.30 40.90 42.38Q42.50 40.45 42.50 37L42.50 24.40L48.80 24.40L48.80 49.20L42.60 49.20L42.60 45.95L41.70 45.95Q41.10 47.20 39.45 48.40Q37.80 49.60 34.45 49.60ZM55.80 49.20L55.80 24.40L62 24.40L62 27.65L62.90 27.65Q63.50 26.35 65.15 25.18Q66.80 24 70.15 24Q73.05 24 75.22 25.33Q77.40 26.65 78.60 28.98Q79.80 31.30 79.80 34.40L79.80 49.20L73.50 49.20L73.50 34.90Q73.50 32.10 72.13 30.70Q70.75 29.30 68.20 29.30Q65.30 29.30 63.70 31.23Q62.10 33.15 62.10 36.60L62.10 49.20L55.80 49.20ZM97.90 49.90Q94.20 49.90 91.38 48.33Q88.55 46.75 86.97 43.88Q85.40 41 85.40 37.10L85.40 36.50Q85.40 32.60 86.95 29.73Q88.50 26.85 91.30 25.28Q94.10 23.70 97.80 23.70Q101.45 23.70 104.15 25.33Q106.85 26.95 108.35 29.83Q109.85 32.70 109.85 36.50L109.85 38.65L91.80 38.65Q91.90 41.20 93.70 42.80Q95.50 44.40 98.10 44.40Q100.75 44.40 102 43.25Q103.25 42.10 103.90 40.70L109.05 43.40Q108.35 44.70 107.02 46.23Q105.70 47.75 103.50 48.83Q101.30 49.90 97.90 49.90M91.85 33.95L103.45 33.95Q103.25 31.80 101.72 30.50Q100.20 29.20 97.75 29.20Q95.20 29.20 93.70 30.50Q92.20 31.80 91.85 33.95ZM125.45 49.90Q122.50 49.90 119.92 48.43Q117.35 46.95 115.80 44.10Q114.25 41.25 114.25 37.20L114.25 36.40Q114.25 32.35 115.80 29.50Q117.35 26.65 119.90 25.18Q122.45 23.70 125.45 23.70Q127.70 23.70 129.22 24.23Q130.75 24.75 131.70 25.55Q132.65 26.35 133.15 27.25L134.05 27.25L134.05 14.20L140.35 14.20L140.35 49.20L134.15 49.20L134.15 46.20L133.25 46.20Q132.40 47.60 130.63 48.75Q128.85 49.90 125.45 49.90M127.35 44.40Q130.25 44.40 132.20 42.53Q134.15 40.65 134.15 37.05L134.15 36.55Q134.15 32.95 132.22 31.08Q130.30 29.20 127.35 29.20Q124.45 29.20 122.50 31.08Q120.55 32.95 120.55 36.55L120.55 37.05Q120.55 40.65 122.50 42.53Q124.45 44.40 127.35 44.40ZM156.80 49.60Q153.90 49.60 151.72 48.28Q149.55 46.95 148.35 44.60Q147.15 42.25 147.15 39.20L147.15 24.40L153.45 24.40L153.45 38.70Q153.45 41.50 154.82 42.90Q156.20 44.30 158.75 44.30Q161.65 44.30 163.25 42.38Q164.85 40.45 164.85 37L164.85 24.40L171.15 24.40L171.15 49.20L164.95 49.20L164.95 45.95L164.05 45.95Q163.45 47.20 161.80 48.40Q160.15 49.60 156.80 49.60ZM178.15 59.20L178.15 24.40L184.35 24.40L184.35 27.40L185.25 27.40Q186.10 25.95 187.90 24.83Q189.70 23.70 193.05 23.70Q196.05 23.70 198.60 25.18Q201.15 26.65 202.70 29.50Q204.25 32.35 204.25 36.40L204.25 37.20Q204.25 41.25 202.70 44.10Q201.15 46.95 198.60 48.43Q196.05 49.90 193.05 49.90Q190.80 49.90 189.28 49.38Q187.75 48.85 186.83 48.03Q185.90 47.20 185.35 46.35L184.45 46.35L184.45 59.20L178.15 59.20M191.15 44.40Q194.10 44.40 196.03 42.53Q197.95 40.65 197.95 37.05L197.95 36.55Q197.95 32.95 196 31.08Q194.05 29.20 191.15 29.20Q188.25 29.20 186.30 31.08Q184.35 32.95 184.35 36.55L184.35 37.05Q184.35 40.65 186.30 42.53Q188.25 44.40 191.15 44.40Z"/></g></g></svg>