<?xml version="1.0" encoding="UTF-8"?>
<svg xmlns="http://www.w3.org/2000/svg" version="1.1" viewBox="0 0 180.9 45">
  <!-- Generator: Adobe Illustrator 30.4.0, SVG Export Plug-In . SVG Version: 2.1.4 Build 226)  -->
  <g id="Layer_1" data-asc="0.984">
    <path d="M11.7,35c-1.6,0-3-.5-4-1.5-1-1-1.5-2.4-1.5-4.1v-14H0v-5.2h6.2V2.5h6.3v7.7h6.8v5.2h-6.8v12.9c0,1,.5,1.5,1.4,1.5h4.8v5.2h-7ZM31.5,35.4c-1.9,0-3.6-.4-5.1-1.3-1.5-.9-2.6-2.1-3.4-3.7-.8-1.6-1.2-3.4-1.2-5.4v-14.8h6.3v14.3c0,1.9.5,3.3,1.4,4.2.9.9,2.2,1.4,3.9,1.4s3.4-.6,4.5-1.9c1.1-1.3,1.6-3.1,1.6-5.4v-12.6h6.3v24.8h-6.2v-3.2h-.9c-.4.8-1.2,1.7-2.2,2.5s-2.8,1.2-5,1.2ZM47.8,35V10.2h6.2v3.2h.9c.4-.9,1.1-1.7,2.2-2.5,1.1-.8,2.8-1.2,5-1.2s3.6.4,5.1,1.3c1.5.9,2.6,2.1,3.4,3.6.8,1.5,1.2,3.4,1.2,5.4v14.8h-6.3v-14.3c0-1.9-.5-3.3-1.4-4.2-.9-.9-2.2-1.4-3.9-1.4-1.9,0-3.4.6-4.5,1.9-1.1,1.3-1.6,3.1-1.6,5.4v12.6h-6.3ZM85.9,35.7c-2.5,0-4.6-.5-6.5-1.6-1.9-1.1-3.4-2.5-4.4-4.5-1-1.9-1.6-4.2-1.6-6.8v-.6c0-2.6.5-4.9,1.5-6.8,1-1.9,2.5-3.4,4.4-4.4,1.9-1.1,4-1.6,6.5-1.6,2.4,0,4.5.5,6.3,1.6,1.8,1.1,3.2,2.6,4.2,4.5,1,1.9,1.5,4.1,1.5,6.7v2.2h-18c0,1.7.7,3.1,1.9,4.1,1.2,1.1,2.7,1.6,4.4,1.6,1.8,0,3.1-.4,3.9-1.2s1.5-1.6,1.9-2.5l5.2,2.7c-.5.9-1.1,1.8-2,2.8-.9,1-2.1,1.9-3.5,2.6-1.5.7-3.3,1.1-5.6,1.1M79.8,19.8h11.6c-.1-1.4-.7-2.6-1.7-3.5-1-.9-2.3-1.3-4-1.3-1.7,0-3.1.4-4.1,1.3-1,.9-1.6,2-1.8,3.5ZM111.4,35.7c-2,0-3.8-.5-5.5-1.5-1.7-1-3.1-2.4-4.1-4.3-1-1.9-1.6-4.2-1.6-6.9v-.8c0-2.7.5-5,1.6-6.9,1-1.9,2.4-3.3,4.1-4.3,1.7-1,3.5-1.5,5.5-1.5,1.5,0,2.8.2,3.8.5,1,.3,1.8.8,2.5,1.3.6.5,1.1,1.1,1.4,1.7h.9V0h6.3v35h-6.2v-3h-.9c-.6.9-1.4,1.8-2.6,2.5-1.2.8-2.9,1.2-5.2,1.2M113.3,30.2c1.9,0,3.6-.6,4.8-1.9,1.3-1.3,1.9-3.1,1.9-5.5v-.5c0-2.4-.6-4.2-1.9-5.5-1.3-1.3-2.9-1.9-4.9-1.9-1.9,0-3.6.6-4.8,1.9-1.3,1.2-1.9,3.1-1.9,5.5v.5c0,2.4.7,4.2,1.9,5.5,1.3,1.2,2.9,1.9,4.8,1.9ZM137.8,35.4c-1.9,0-3.6-.4-5.1-1.3-1.4-.9-2.6-2.1-3.4-3.7-.8-1.6-1.2-3.4-1.2-5.4v-14.8h6.3v14.3c0,1.9.5,3.3,1.4,4.2.9.9,2.2,1.4,3.9,1.4s3.4-.6,4.5-1.9c1.1-1.3,1.6-3.1,1.6-5.4v-12.6h6.3v24.8h-6.2v-3.2h-.9c-.4.8-1.1,1.7-2.2,2.5s-2.8,1.2-5,1.2ZM154.1,45V10.2h6.2v3h.9c.6-1,1.4-1.8,2.6-2.6,1.2-.8,2.9-1.1,5.2-1.1,2,0,3.9.5,5.6,1.5,1.7,1,3.1,2.4,4.1,4.3,1,1.9,1.6,4.2,1.6,6.9v.8c0,2.7-.5,5-1.6,6.9-1,1.9-2.4,3.3-4.1,4.3-1.7,1-3.6,1.5-5.6,1.5-1.5,0-2.8-.2-3.8-.5-1-.4-1.8-.8-2.4-1.4-.6-.6-1.1-1.1-1.5-1.7h-.9v12.9h-6.3M167.1,30.2c2,0,3.6-.6,4.9-1.9,1.3-1.3,1.9-3.1,1.9-5.5v-.5c0-2.4-.6-4.2-1.9-5.5-1.3-1.3-2.9-1.9-4.9-1.9-1.9,0-3.6.6-4.8,1.9-1.3,1.2-1.9,3.1-1.9,5.5v.5c0,2.4.6,4.2,1.9,5.5,1.3,1.2,2.9,1.9,4.8,1.9Z"/>
  </g>
</svg>