<?xml version="1.0" encoding="UTF-8"?>
<svg id="Layer_1" data-name="Layer 1" xmlns="http://www.w3.org/2000/svg" viewBox="0 0 2091.27 500">
  <defs>
    <style>
      .cls-1 {
        fill: #231f20;
      }
    </style>
  </defs>
  <path class="cls-1" d="M2091.27,217.04v97.09c0,41.28-33.47,74.75-74.75,74.75h-88.66v-34.14c0-11.05,4.36-21.59,12.17-29.4l45.31-45.31v47.47h45.06v-86.38c0-21.26-17.23-38.5-38.5-38.5h-87.87v45.06h49.96l-59.01,59.01c-7.81,7.81-12.17,18.36-12.17,29.4v43.23c-22.76-12.83-38.12-37.21-38.12-65.2v-97.09c0-41.28,33.43-74.75,74.75-74.75h97.09c41.28,0,74.75,33.47,74.75,74.75Z"/>
  <path class="cls-1" d="M130,388.88c-18.15,0-32.87-5.64-44.17-16.94-11.3-11.29-16.95-26.39-16.95-45.28v-155.56H0v-57.78h68.89V27.78h70v85.56h75.56v57.78h-75.56v143.33c0,11.11,5.18,16.67,15.56,16.67h53.33v57.78h-77.78Z"/>
  <path class="cls-1" d="M354.99,393.33c-21.48,0-40.28-4.91-56.39-14.72-16.11-9.81-28.61-23.42-37.5-40.83-8.89-17.4-13.33-37.4-13.33-60V113.33h70v158.89c0,20.75,5.09,36.3,15.28,46.67,10.18,10.37,24.72,15.55,43.61,15.55,21.48,0,38.14-7.13,50-21.39,11.85-14.25,17.78-34.17,17.78-59.72V113.33h70v275.55h-68.89v-36.11h-10c-4.44,9.26-12.78,18.33-25,27.22-12.22,8.89-30.74,13.33-55.55,13.33Z"/>
  <path class="cls-1" d="M564.43,388.88V113.33h68.89v36.11h10c4.44-9.63,12.78-18.79,25-27.5,12.22-8.7,30.74-13.05,55.56-13.05,21.47,0,40.28,4.91,56.39,14.72,16.11,9.82,28.61,23.33,37.5,40.56,8.89,17.22,13.33,37.32,13.33,60.28v164.44h-70v-158.89c0-20.74-5.1-36.29-15.28-46.67-10.19-10.37-24.72-15.56-43.61-15.56-21.48,0-38.15,7.14-50,21.39-11.86,14.26-17.78,34.17-17.78,59.72v140h-70Z"/>
  <path class="cls-1" d="M1004.43,396.66c-27.41,0-51.58-5.83-72.5-17.5-20.93-11.67-37.22-28.14-48.89-49.44-11.67-21.29-17.5-46.39-17.5-75.28v-6.67c0-28.89,5.74-53.97,17.22-75.28,11.47-21.29,27.59-37.78,48.33-49.44,20.74-11.67,44.81-17.5,72.22-17.5s50.56,6.02,70.55,18.05c20,12.04,35.55,28.71,46.67,50,11.11,21.3,16.67,46.02,16.67,74.17v23.89h-200.55c.74,18.89,7.78,34.26,21.11,46.11,13.33,11.86,29.63,17.78,48.89,17.78s34.07-4.25,43.33-12.78c9.25-8.52,16.29-17.96,21.11-28.33l57.22,30c-5.19,9.64-12.69,20.09-22.5,31.39-9.82,11.3-22.87,20.93-39.17,28.89-16.3,7.96-37.04,11.95-62.22,11.95ZM937.21,219.44h128.89c-1.48-15.92-7.87-28.7-19.17-38.33-11.3-9.63-26.02-14.44-44.17-14.44s-33.89,4.82-45,14.44c-11.11,9.64-17.97,22.41-20.56,38.33Z"/>
  <path class="cls-1" d="M1282.76,396.66c-21.86,0-42.32-5.47-61.39-16.39-19.08-10.92-34.36-26.94-45.83-48.06-11.48-21.11-17.22-46.67-17.22-76.66v-8.89c0-30,5.74-55.56,17.22-76.67,11.47-21.11,26.67-37.13,45.55-48.06,18.89-10.92,39.45-16.39,61.67-16.39,16.67,0,30.64,1.94,41.94,5.83,11.29,3.89,20.46,8.8,27.5,14.72,7.03,5.93,12.4,12.22,16.11,18.89h10V0h70v388.88h-68.89v-33.33h-10c-6.3,10.37-16.03,19.82-29.17,28.33-13.15,8.52-32.32,12.78-57.5,12.78ZM1303.87,335.55c21.48,0,39.44-6.94,53.89-20.83,14.45-13.89,21.67-34.17,21.67-60.83v-5.56c0-26.67-7.13-46.94-21.39-60.83-14.26-13.89-32.32-20.83-54.16-20.83s-39.45,6.94-53.89,20.83c-14.44,13.89-21.67,34.17-21.67,60.83v5.56c0,26.67,7.22,46.94,21.67,60.83,14.44,13.89,32.4,20.83,53.89,20.83Z"/>
  <path class="cls-1" d="M1603.3,393.33c-21.48,0-40.28-4.91-56.39-14.72-16.11-9.81-28.61-23.42-37.5-40.83-8.89-17.4-13.33-37.4-13.33-60V113.33h70v158.89c0,20.75,5.09,36.3,15.28,46.67,10.18,10.37,24.72,15.55,43.61,15.55,21.48,0,38.14-7.13,50-21.39,11.85-14.25,17.78-34.17,17.78-59.72V113.33h70v275.55h-68.89v-36.11h-10c-4.44,9.26-12.78,18.33-25,27.22-12.22,8.89-30.74,13.33-55.55,13.33Z"/>
  <polygon class="cls-1" points="1882.74 357.23 1882.74 500 1812.72 500 1812.72 113.33 1881.62 113.33 1881.62 146.68 1881.7 146.68 1882.16 236.34 1882.32 267.57 1882.74 357.23"/>
  <line class="cls-1" x1="1881.7" y1="146.68" x2="1881.62" y2="125.25"/>
</svg>